Ben Banks 2012 BRRip x264 AAC-UNiQUE

General
Complete name                            : Ben Banks 2012 BRRip x264 AAC-UNiQUE.mp4
Format                                   : MPEG-4
Format profile                           : Base Media
Codec ID                                 : isom
File size                                : 1.42 GiB
Duration                                 : 1h 25mn
Overall bit rate mode                    : Variable
Overall bit rate                         : 2 373 Kbps
Encoded date                             : UTC 2012-10-18 13:36:38

Video
ID                                       : 1
Format                                   : AVC
Format/Info                              : Advanced Video Codec
Format profile                           : High@L4.1
Format settings, CABAC                   : Yes
Format settings, ReFrames                : 3 frames
Format settings, GOP                     : M=4, N=23
Codec ID                                 : avc1
Codec ID/Info                            : Advanced Video Coding
Duration                                 : 1h 25mn
Bit rate mode                            : Variable
Bit rate                                 : 2 069 Kbps
Maximum bit rate                         : 40.0 Mbps
Width                                    : 720 pixels
Height                                   : 400 pixels
Display aspect ratio                     : 16:9
Frame rate mode                          : Constant
Frame rate                               : 23.976 fps
Color space                              : YUV
Chroma subsampling                       : 4:2:0
Bit depth                                : 8 bits
Scan type                                : Progressive
Bits/(Pixel*Frame)                       : 0.300
Stream size                              : 1.23 GiB (87%)
Writing library                          : x264 core 128 r2216 198a7ea

Audio
ID                                       : 2
Format                                   : AAC
Format/Info                              : Advanced Audio Codec
Format profile                           : LC
Codec ID                                 : 40
Duration                                 : 1h 25mn
Bit rate mode                            : Variable
Bit rate                                 : 301 Kbps
Maximum bit rate                         : 368 Kbps
Channel(s)                               : 6 channels
Channel positions                        : Front: L C R, Side: L R, LFE
Sampling rate                            : 48.0 KHz
Compression mode                         : Lossy
Stream size                              : 184 MiB (13%)
Language                                 : English
Encoded date                             : UTC 2012-10-18 13:43:17

Source: 720p.BluRay.x264-SONiDO - Thanks!              

Storyline
Ben Banks is the Forrest Gump of the slacker generation. He's a young man without much drive or ambition, who stumbles into a series of strange and fascinating (mis)adventures. When he falls in love with a beautiful girl with a mysterious past, he begins a journey that makes him discover being a grown-up isn't so bad after all.

iMDB: http://www.imdb.com/title/tt1714828/


Poster:

 
http://imgon.net/di-A269.jpg


Screenshots:

 
http://imgon.net/di-42W1.jpg


ENJOY!